<?xml version="1.0" encoding="UTF-8"?>
<!DOCTYPE svg PUBLIC "-//W3C//DTD SVG 1.1//EN" "http://www.w3.org/Graphics/SVG/1.1/DTD/svg11.dtd">
<!-- Creator: CorelDRAW 2021 (64-Bit) -->
<?xml-stylesheet href="belang a.css" type="text/css"?>
<svg xmlns="http://www.w3.org/2000/svg" xml:space="preserve" width="8.5in" height="11in" version="1.1" style="shape-rendering:geometricPrecision; text-rendering:geometricPrecision; image-rendering:optimizeQuality; fill-rule:evenodd; clip-rule:evenodd"
viewBox="0 0 8500 11000"
 xmlns:xlink="http://www.w3.org/1999/xlink"
 xmlns:xodm="http://www.corel.com/coreldraw/odm/2003">
 <g id="BELANG">
  <metadata id="CorelCorpID_0Corel-Layer"/>
  <path class="fil0" d="M4318.26 6601.84c0,0 18.05,174.06 140.54,185.67 122.48,11.6 275.92,-11.6 300.41,-20.63 0,0 244.97,-116.04 165.03,-268.18 -79.94,-152.14 -85.09,-232.08 -210.16,-302.99 -125.07,-70.91 -456.42,67.05 -456.42,67.05 0,0 -79.94,16.76 -88.96,211.45 0,0 -10.31,88.96 149.56,127.64z"/>
  <path class="fil1" d="M5730.54 6357.37c118.38,255.65 290.4,655.31 324.88,887.87l-3.87 140.36c-4.9,12.8 -11.59,23.22 -20.5,30.65 -36.01,30.01 -22.33,34.85 19.15,18.28l-8.02 290.94 10.41 28.49 -10.41 3.31c0,0 -83.6,382.04 -747.48,501.11 -9.31,-42.59 -16.91,-92.96 -22.09,-152.64 -43.05,-495.77 434.09,-746.2 444.85,-835.89 10.76,-89.69 -179.37,-64.57 -233.19,-391.04 -53.81,-326.47 172.2,-448.44 172.2,-448.44l74.07 -72.99z"/>
  <path class="fil2" d="M6263.26 7297.18c128.48,-96.82 270.65,-244.95 316.84,-430.02l221.54 28.72 94.2 -18.84c-52.03,233.85 -165.14,492.28 -402.37,674.7l-62.48 -62.48 -55.47 -55.47 -112.26 -136.61z"/>
  <path class="fil2" d="M6368.81 5838.5c-4.65,-44.47 -3.08,-63.53 -3.08,-63.53 0,0 18.68,-251.81 333.24,-284.5l80.01 89.32c0,0 199.15,316.5 -323.12,271.67 -33.15,-2.85 -62,-7.24 -87.06,-12.95z"/>
  <path class="fil2" d="M2335.06 4556.48c21.68,-72.03 52.87,-154.69 95.94,-225.54 0,0 -254.8,-1100.25 -76.35,-1377.15 0,0 192.61,-201.8 737.52,458.69 0,0 267.86,-61.52 629.33,-23.76 0,0 47.56,-27.79 111.37,-66.59 -1.84,48.85 -6.2,99.96 -13.75,153.86 -176.39,1259.92 -1378.71,1094.33 -1378.71,1094.33l-105.36 -13.83z"/>
  <path class="fil3" d="M2193.02 7461.11c19.3,-283.57 130.05,-594.96 237.27,-837.61l80.52 23.19c0,0 337.55,149.72 0,264.05 0,0 209.61,446.43 81.67,511.77 -127.94,65.33 -337.55,59.89 -337.55,59.89l-61.91 -21.29z"/>
  <path class="fil2" d="M6695.56 6628.61l189.84 0 88.89 3.65c5.63,-75.87 5.97,-142.72 4.4,-195.3 -106.98,8.74 -266.99,17.26 -417.19,7.65 12.8,36.59 26.56,74.89 41.45,115.1 9.03,24.39 16.11,48.39 21.52,72.02l71.08 -3.13z"/>
 </g>
</svg>
