<?xml version="1.0" encoding="UTF-8"?>
<!DOCTYPE svg PUBLIC "-//W3C//DTD SVG 1.1//EN" "http://www.w3.org/Graphics/SVG/1.1/DTD/svg11.dtd">
<!-- Creator: CorelDRAW 2021 (64-Bit) -->
<?xml-stylesheet href="body putih.css" type="text/css"?>
<svg xmlns="http://www.w3.org/2000/svg" xml:space="preserve" width="8.5in" height="11in" version="1.1" style="shape-rendering:geometricPrecision; text-rendering:geometricPrecision; image-rendering:optimizeQuality; fill-rule:evenodd; clip-rule:evenodd"
viewBox="0 0 8500 11000"
 xmlns:xlink="http://www.w3.org/1999/xlink"
 xmlns:xodm="http://www.corel.com/coreldraw/odm/2003">
 <g id="BODY">
  <metadata id="CorelCorpID_0Corel-Layer"/>
  <path class="fil0 str0" d="M6098.69 7758.04c-201.79,90.88 -169.88,622.69 -1449.69,529.96l-35.25 -8.28c0,0 -63.28,148 -239.86,107.17 -176.58,-40.83 -178.62,-166.37 -178.62,-166.37l-438.7 -2.58c0,0 -30.39,187.24 -240.53,203.77 -210.14,16.53 -245.13,-211.35 -245.13,-211.35 0,0 -815.43,190.88 -1009.06,-401.8 -193.63,-592.68 418.5,-1610.01 418.5,-1610.01 0,0 -411.93,-219.34 -467.21,-559.94 0,0 -44.46,-227.88 6.78,-439.59 0,0 -235.98,-98.44 -258.9,-164.51 -22.93,-66.07 339.81,-26.97 339.81,-26.97 0,0 -283.47,-246.88 -234.53,-314.18 48.94,-67.3 261.04,41.8 261.04,41.8 0,0 35.19,-235.45 137.68,-404.03 0,0 -254.8,-1100.25 -76.35,-1377.15 0,0 192.61,-201.8 737.52,458.69 0,0 267.86,-61.52 629.33,-23.76 0,0 431.6,-252.22 439.7,-298.07 0,0 91.72,1.35 0,292.68 0,0 129.24,-120.54 199.61,-132.26 0,0 -20.72,69.89 0,161.41 0,0 279.98,-77.27 706.7,37.61 0,0 422.19,-597.17 733.63,-533.46 311.43,63.7 -12.02,1276.2 -12.02,1276.2 0,0 226.07,398.31 193.77,484.43l250.57 8.21c0,0 -14.09,120.14 -194.87,260.44 -180.78,140.3 261.72,41.82 261.72,41.82 0,0 116.43,2.93 -209.39,237.2 0,0 13.6,588.26 -467,897.21 0,0 597.47,1147.85 427.3,1286.27 -20.93,17.02 -18.45,22.77 0.05,18.2 102.92,-25.45 701.58,-370.4 517.67,-867.09 -219.1,-591.72 -203.2,-784.54 -203.2,-784.54 0,0 25.2,-340.04 510.63,-281.15 485.43,58.89 59.86,821.25 59.86,821.25 0,0 160.73,1189.7 -855.3,1436.59 -5.6,1.75 -11.01,3.82 -16.26,6.18z"/>
  <path class="fil1 str0" d="M3825.5 7874.98c0,0 -21.83,243.9 -68.93,329.15"/>
  <path class="fil1 str0" d="M3187.9 7844.41c0,0 7.03,231.31 85.23,377.06"/>
  <path class="fil1 str0" d="M4114.96 7878.21c0,0 -13.06,124.15 80.31,342.31"/>
  <path class="fil1 str0" d="M4745.74 7864.01c0,0 37.85,68.37 -122.7,425"/>
 </g>
</svg>
