 
<svg xmlns="http://www.w3.org/2000/svg" xmlns:xlink="http://www.w3.org/1999/xlink" width="250px" height="240px" viewBox="0 0 249 240" version="1.1">
<g id="surface1">
<path style=" stroke:none;fill-rule:nonzero;fill:rgb(0%,0%,0%);fill-opacity:1;" d="M 248.410156 119.636719 L 248.410156 239.316406 L 124.183594 239.316406 C 55.898438 239.316406 0 239.453125 0 239.636719 C 0 239.863281 56.035156 240 124.546875 240 L 249.089844 240 L 249.089844 120 C 249.089844 54 248.953125 0 248.773438 0 C 248.546875 0 248.410156 53.863281 248.410156 119.636719 Z M 248.410156 119.636719 "/>
<path style=" stroke:none;fill-rule:nonzero;fill:rgb(0%,0%,0%);fill-opacity:1;" d="M 46.050781 56.089844 C 42.605469 57.683594 40.5625 60.453125 38.113281 66.546875 C 34.84375 74.773438 33.621094 84.410156 34.484375 94.589844 C 35.027344 101.410156 35.617188 104.863281 36.34375 105.773438 C 37.203125 106.773438 39.382812 106.5 40.199219 105.226562 C 40.878906 104.226562 40.878906 103.773438 40.335938 101.046875 C 39.335938 96.046875 39.5625 80.863281 40.742188 75.410156 C 41.789062 70.273438 44.601562 64 46.6875 62.046875 C 48.003906 60.816406 48.457031 60.683594 50.953125 60.683594 C 53.265625 60.683594 54.402344 61 57.394531 62.410156 C 66.742188 66.863281 73.09375 71.410156 81.488281 79.636719 C 84.800781 82.816406 87.613281 85.453125 87.75 85.453125 C 87.929688 85.453125 88.566406 85.136719 89.15625 84.726562 C 89.972656 84.226562 90.289062 83.589844 90.289062 82.589844 C 90.289062 81.5 89.472656 80.410156 85.886719 76.683594 C 78.222656 68.863281 70.824219 63.363281 61.886719 58.910156 C 53.902344 54.910156 50 54.226562 46.050781 56.089844 Z M 46.050781 56.089844 "/>
<path style=" stroke:none;fill-rule:nonzero;fill:rgb(0%,0%,0%);fill-opacity:1;" d="M 193.148438 56.363281 C 187.839844 58.183594 182.667969 60.773438 177.359375 64.363281 C 169.828125 69.410156 158.347656 80.410156 158.347656 82.589844 C 158.347656 83.910156 160.296875 85.546875 161.296875 85.136719 C 161.796875 85 164.109375 82.816406 166.515625 80.316406 C 174.773438 71.683594 187.65625 63 195.097656 61.089844 C 199.773438 59.910156 202.585938 61.226562 204.945312 65.773438 C 208.621094 72.773438 209.980469 84.910156 208.621094 99.183594 C 208.03125 105.589844 208.257812 106.363281 210.570312 106.363281 C 212.476562 106.363281 213.066406 105.046875 213.925781 98.953125 C 215.0625 91 214.335938 78.910156 212.292969 71.089844 C 211.25 67.046875 208.800781 61.910156 206.621094 59.226562 C 204.808594 57.046875 201.042969 55 198.773438 55 C 197.867188 55 195.324219 55.636719 193.148438 56.363281 Z M 193.148438 56.363281 "/>
<path style=" stroke:none;fill-rule:nonzero;fill:rgb(0%,0%,0%);fill-opacity:1;" d="M 49.136719 76.589844 C 47.457031 77.316406 46.824219 78.953125 47.640625 80.453125 C 48.140625 81.410156 48.410156 81.453125 50.996094 81.183594 C 52.496094 81.046875 54.492188 81.136719 55.445312 81.363281 C 57.847656 82.046875 63.292969 85.773438 66.921875 89.226562 C 68.691406 90.910156 70.417969 92.273438 70.824219 92.273438 C 71.824219 92.273438 73.046875 90.816406 73.046875 89.589844 C 73.046875 88.183594 66.96875 81.953125 63.25 79.5 C 58.300781 76.273438 52.539062 75.089844 49.136719 76.589844 Z M 49.136719 76.589844 "/>
<path style=" stroke:none;fill-rule:nonzero;fill:rgb(0%,0%,0%);fill-opacity:1;" d="M 191.242188 76.863281 C 184.707031 79.136719 177.039062 85.046875 175.996094 88.636719 C 175.496094 90.226562 175.542969 90.546875 176.269531 91.363281 C 177.539062 92.773438 178.628906 92.453125 181.394531 89.863281 C 185.253906 86.273438 188.792969 83.410156 190.378906 82.589844 C 192.785156 81.363281 195.824219 80.863281 197.910156 81.316406 C 199.5 81.683594 200 81.636719 200.632812 81.046875 C 201.722656 80.046875 201.675781 78.046875 200.496094 77 C 199.089844 75.726562 194.644531 75.636719 191.242188 76.863281 Z M 191.242188 76.863281 "/>
<path style=" stroke:none;fill-rule:nonzero;fill:rgb(0%,0%,0%);fill-opacity:1;" d="M 66.105469 133.183594 C 65.925781 133.953125 65.878906 134.773438 66.015625 135 C 66.105469 135.183594 68.421875 135.453125 71.097656 135.589844 C 81.214844 136.136719 90.378906 139.136719 97.914062 144.363281 C 100.996094 146.546875 101.679688 146.726562 102.539062 145.683594 C 103.992188 143.953125 101.316406 141.046875 96.097656 138.683594 C 89.15625 135.546875 77.539062 132.546875 69.917969 131.953125 L 66.378906 131.683594 Z M 66.105469 133.183594 "/>
<path style=" stroke:none;fill-rule:nonzero;fill:rgb(0%,0%,0%);fill-opacity:1;" d="M 176.042969 134.546875 C 165.289062 135.863281 151.085938 140.726562 147.09375 144.453125 C 145.460938 146 145.234375 147.226562 146.460938 148.363281 C 147.277344 149.046875 147.503906 148.953125 151.085938 146.546875 C 155.488281 143.636719 159.34375 141.773438 164.472656 140.226562 C 168.828125 138.910156 176.042969 137.726562 180.082031 137.726562 L 182.984375 137.726562 L 182.667969 136.316406 C 182.53125 135.546875 182.394531 134.726562 182.394531 134.5 C 182.394531 134.046875 180.261719 134.046875 176.042969 134.546875 Z M 176.042969 134.546875 "/>
<path style=" stroke:none;fill-rule:nonzero;fill:rgb(0%,0%,0%);fill-opacity:1;" d="M 63.292969 146.089844 C 61.796875 146.453125 59.390625 147.226562 57.984375 147.863281 C 55.898438 148.773438 55.21875 149.363281 54.445312 150.910156 L 53.492188 152.773438 L 55.21875 152.453125 C 56.171875 152.316406 57.984375 151.726562 59.210938 151.136719 C 63.066406 149.363281 65.335938 148.910156 70.78125 148.953125 C 76.316406 148.953125 86.886719 150.5 98.320312 152.953125 C 99.636719 153.273438 100.679688 151.589844 99.726562 150.636719 C 99.046875 150 92.558594 148.273438 85.070312 146.816406 C 78.675781 145.546875 67.285156 145.183594 63.292969 146.089844 Z M 63.292969 146.089844 "/>
<path style=" stroke:none;fill-rule:nonzero;fill:rgb(0%,0%,0%);fill-opacity:1;" d="M 169.828125 148.226562 C 165.289062 148.726562 154.492188 151 151.132812 152.136719 C 148.410156 153.046875 148.046875 153.5 148.957031 154.683594 C 149.5 155.453125 150 155.410156 158.121094 153.910156 C 170.597656 151.636719 173.046875 151.316406 178.21875 151.316406 C 183.347656 151.316406 185.253906 151.726562 189.746094 153.683594 C 191.378906 154.410156 193.285156 155 193.917969 155 L 195.097656 155 L 194.238281 153.226562 C 193.238281 151.316406 190.925781 149.953125 186.703125 148.773438 C 183.800781 148 174.636719 147.683594 169.828125 148.226562 Z M 169.828125 148.226562 "/>
<path style=" stroke:none;fill-rule:nonzero;fill:rgb(0%,0%,0%);fill-opacity:1;" d="M 110.027344 151.136719 C 108.484375 152.636719 108.574219 154.816406 110.253906 158.316406 C 112.160156 162.273438 115.335938 166.136719 118.191406 167.953125 C 119.507812 168.816406 120.78125 169.773438 120.914062 170.046875 C 121.914062 171.636719 113.066406 177.453125 106.441406 179.5 C 96.503906 182.589844 87.839844 181.089844 81.714844 175.226562 C 80.261719 173.863281 78.945312 172.726562 78.8125 172.726562 C 78.222656 172.726562 78.492188 174.816406 79.21875 175.910156 C 83.890625 182.910156 93.148438 185.910156 103.355469 183.816406 C 110.617188 182.316406 116.652344 179.273438 121.550781 174.636719 L 124 172.316406 L 126.632812 174.726562 C 138.019531 185.316406 155.761719 187.636719 165.152344 179.773438 C 168.375 177.089844 171.007812 172.273438 169.238281 172.273438 C 169.007812 172.273438 167.785156 173.410156 166.46875 174.816406 C 164.835938 176.453125 162.882812 177.910156 160.660156 179 C 157.441406 180.589844 156.984375 180.683594 152.175781 180.863281 C 146.140625 181.046875 141.515625 180.046875 136.296875 177.453125 C 133.03125 175.773438 127.039062 171.546875 126.722656 170.683594 C 126.632812 170.410156 127.359375 169.816406 128.265625 169.316406 C 131.941406 167.363281 137.703125 160.410156 139.15625 156.273438 C 139.652344 154.816406 139.652344 154.273438 139.109375 153 C 137.882812 150 135.433594 149.363281 130.351562 150.683594 C 127.039062 151.546875 122.09375 151.546875 118.875 150.683594 C 117.511719 150.316406 115.199219 150 113.746094 150 C 111.570312 150 110.933594 150.183594 110.027344 151.136719 Z M 110.027344 151.136719 "/>
<path style=" stroke:none;fill-rule:nonzero;fill:rgb(0%,0%,0%);fill-opacity:1;" d="M 92.785156 158.5 C 79.535156 159.546875 71.097656 161.589844 62.839844 165.773438 C 56.171875 169.136719 56.304688 169 58.121094 170.453125 L 59.574219 171.683594 L 62.386719 170 C 70.097656 165.273438 78.175781 163.136719 93.917969 161.589844 C 98.046875 161.183594 101.90625 160.773438 102.496094 160.636719 L 103.582031 160.410156 L 102.539062 159.273438 C 101.585938 158.273438 101.132812 158.183594 98.046875 158.273438 C 96.144531 158.316406 93.785156 158.410156 92.785156 158.5 Z M 92.785156 158.5 "/>
<path style=" stroke:none;fill-rule:nonzero;fill:rgb(0%,0%,0%);fill-opacity:1;" d="M 146.140625 161.546875 C 145.507812 162.183594 145.097656 162.816406 145.234375 162.910156 C 145.324219 163 148.273438 163.316406 151.769531 163.636719 C 169.644531 165.226562 179.671875 167.910156 187.65625 173.136719 L 189.019531 174.089844 L 190.5625 172.773438 L 192.105469 171.5 L 188.246094 169.410156 C 182.347656 166.183594 179.445312 165 173.773438 163.546875 C 168.238281 162.136719 160.980469 161.183594 152.449219 160.683594 C 147.230469 160.363281 147.230469 160.363281 146.140625 161.546875 Z M 146.140625 161.546875 "/>
</g>
</svg>
